<svg width="24" height="24" viewBox="0 0 24 24" fill="none" xmlns="http://www.w3.org/2000/svg">
<path d="M7.99993 16.21V7.79001C7.99945 7.4576 8.09311 7.13184 8.27009 6.85045C8.44706 6.56907 8.7001 6.34355 8.99993 6.20001C9.35567 6.03198 9.75146 5.96726 10.1422 6.01323C10.5329 6.05919 10.9029 6.214 11.2099 6.46001L16.3099 10.67C16.5006 10.8352 16.6534 11.0395 16.7582 11.269C16.863 11.4984 16.9172 11.7477 16.9172 12C16.9172 12.2523 16.863 12.5016 16.7582 12.7311C16.6534 12.9605 16.5006 13.1648 16.3099 13.33L11.2099 17.54C10.9029 17.786 10.5329 17.9408 10.1422 17.9868C9.75146 18.0328 9.35567 17.968 8.99993 17.8C8.7001 17.6565 8.44706 17.4309 8.27009 17.1496C8.09311 16.8682 7.99945 16.5424 7.99993 16.21Z" fill="white"/>
</svg>
