<svg width="32" height="33" viewBox="0 0 32 33" fill="none" xmlns="http://www.w3.org/2000/svg">
<g clip-path="url(#clip0_3_231)">
<path d="M16.0398 24.9858C14.2624 22.7149 13.2468 20.7536 12.8913 18.9988C11.3171 12.6506 20.8132 12.6506 19.239 18.9988C18.8327 20.7536 17.7663 22.8181 16.0398 24.9858ZM25.6881 30.1986C22.7428 31.4889 19.7975 29.4244 17.3093 26.6374C24.6217 17.3473 20.61 12.2893 16.0398 12.2893C12.1804 12.2893 10.0476 15.5408 10.9109 19.4633C11.4187 21.5794 12.6882 23.902 14.7702 26.5858C12.4851 29.1148 10.5554 30.3535 8.77806 30.5083C5.27417 31.076 2.532 27.618 3.8523 24.0568C4.91871 21.2698 11.7234 7.541 12.0281 6.81843C13.0945 4.65073 13.8054 2.74109 16.1921 2.74109C18.4772 2.74109 19.2897 4.5475 20.4069 7.02488C22.9968 12.0312 26.7038 19.6698 28.4811 24.0568C29.2428 26.3793 28.278 29.1148 25.6881 30.1986ZM29.0397 20.4956C19.9499 0.934671 19.4421 0.625 16.0398 0.625C12.8405 0.625 11.4695 2.89592 10.0984 5.78619C2.58278 21.0117 1.92263 23.0762 1.77028 23.3342C0.0437276 28.289 3.69996 32.6244 8.06713 32.6244C9.59056 32.6244 12.3835 32.2115 15.989 28.1858C20.153 32.7792 23.1491 32.6244 23.9108 32.6244C28.3288 32.6244 31.985 28.2374 30.2077 23.3342C30.2584 23.0246 29.0397 20.5472 29.0397 20.4956Z" fill="white"/>
</g>
<defs>
<clipPath id="clip0_3_231">
<rect width="32" height="32" fill="white" transform="translate(0 0.625)"/>
</clipPath>
</defs>
</svg>
