<svg width="32" height="33" viewBox="0 0 32 33" fill="none" xmlns="http://www.w3.org/2000/svg">
<g clip-path="url(#clip0_3_241)">
<path d="M24.0378 0.625C28.422 0.625 32 4.15812 32 8.54929V24.6502C32 29.0414 28.4724 32.625 24.0882 32.625H7.9622C3.57795 32.625 0 29.0919 0 24.7007V8.54929C0 4.15812 3.52756 0.625 7.91181 0.625H24.0378ZM24.0378 2.39156H7.91181C4.53543 2.39156 1.76378 5.16759 1.76378 8.54929V24.7007C1.76378 28.1329 4.53543 30.9089 7.91181 30.9089H24.0882C27.4646 30.9089 30.2362 28.1329 30.2362 24.7007V8.59976C30.2362 5.16759 27.4646 2.39156 24.0378 2.39156ZM15.9748 9.20544C20.0567 9.20544 23.3827 12.5367 23.3827 16.625C23.3827 20.7133 20.0567 24.0446 15.9748 24.0446C11.8929 24.0446 8.56693 20.7133 8.56693 16.625C8.56693 12.5367 11.8929 9.20544 15.9748 9.20544ZM15.9748 10.972C12.8504 10.972 10.3307 13.4957 10.3307 16.625C10.3307 19.7543 12.8504 22.278 15.9748 22.278C19.0992 22.278 21.6189 19.7543 21.6189 16.625C21.6189 13.4957 19.0992 10.972 15.9748 10.972ZM24.0882 5.57137C25.1465 5.57137 26.0031 6.42942 26.0031 7.48935C26.0031 8.54929 25.1465 9.40734 24.0882 9.40734C23.0299 9.40734 22.1732 8.54929 22.1732 7.48935C22.1732 6.42942 23.0299 5.57137 24.0882 5.57137Z" fill="white"/>
</g>
<defs>
<clipPath id="clip0_3_241">
<rect width="32" height="32" fill="white" transform="translate(0 0.625)"/>
</clipPath>
</defs>
</svg>
