<svg width="32" height="33" viewBox="0 0 32 33" fill="none" xmlns="http://www.w3.org/2000/svg">
<g clip-path="url(#clip0_3_236)">
<path d="M18.1286 32.625H14.1938C13.1849 32.625 12.3778 31.7697 12.3778 30.7131V18.7382H9.14933C8.14043 18.7382 7.33331 17.8829 7.33331 16.8263V13.3546C7.33331 12.298 8.14043 11.4426 9.14933 11.4426H12.2769V8.2728C12.2769 3.69418 15.001 0.625 19.0366 0.625H22.0633C23.0722 0.625 23.8793 1.48035 23.8793 2.53695V6.61242C23.8793 7.66903 23.0722 8.52437 22.0633 8.52437H19.995C19.9446 8.52437 19.9446 8.52437 19.8941 8.52437C19.8941 8.57469 19.8941 8.625 19.8941 8.67531V11.3923H22.7695C23.3748 11.4426 23.8793 11.6942 24.2324 12.0967C24.5855 12.5495 24.7369 13.1533 24.636 13.7068L24.0306 17.1281C23.9297 18.0338 23.1731 18.6879 22.2146 18.6879H19.8941V30.7131C19.8941 31.7193 19.087 32.625 18.1286 32.625ZM13.2354 16.9772C13.7398 16.9772 14.1434 17.3797 14.1434 17.8829V30.7131C14.1434 30.8137 14.1938 30.864 14.1938 30.864H18.1286C18.1286 30.864 18.179 30.8137 18.179 30.7131V17.7822C18.179 17.2791 18.5826 16.8766 19.087 16.8766H22.265C22.265 16.8766 22.3155 16.8766 22.3155 16.8263V16.7759L22.9208 13.4049C22.9208 13.3042 22.9208 13.2539 22.8704 13.2036C22.8704 13.2036 22.8199 13.1533 22.7695 13.1533H19.0366C18.5321 13.1533 18.1286 12.7508 18.1286 12.2476V8.67531C18.1286 7.76965 18.2799 6.76336 19.995 6.76336H22.0633C22.0633 6.76336 22.1137 6.71305 22.1137 6.61242V2.58726C22.1137 2.48664 22.0633 2.43632 22.0633 2.43632H19.087C16.0603 2.43632 14.0929 4.75079 14.0929 8.32311V12.3986C14.0929 12.9017 13.6894 13.3042 13.1849 13.3042H9.14933C9.14933 13.3042 9.09889 13.3546 9.09889 13.4552V16.9269C9.09889 17.0275 9.14933 17.0778 9.14933 17.0778L13.2354 16.9772Z" fill="white"/>
</g>
<defs>
<clipPath id="clip0_3_236">
<rect width="32" height="32" fill="white" transform="translate(0 0.625)"/>
</clipPath>
</defs>
</svg>
