<svg width="48" height="48" viewBox="0 0 48 48" fill="none" xmlns="http://www.w3.org/2000/svg">
<path fill-rule="evenodd" clip-rule="evenodd" d="M17 24C20.867 24 24 20.867 24 17C24 13.133 20.867 10 17 10C13.133 10 10 13.133 10 17C10 20.867 13.133 24 17 24ZM22 17C22 19.763 19.763 22 17 22C14.237 22 12 19.763 12 17C12 14.237 14.237 12 17 12C19.763 12 22 14.237 22 17ZM4 38V32.4C4 28.144 12.661 26 17 26C19.886 26 24.685 26.949 27.575 28.837C29.635 28.28 31.894 28 33.5 28C35.358 28 37.851 28.374 39.91 29.13C40.936 29.508 41.919 30.004 42.662 30.646C43.411 31.293 44 32.168 44 33.266V38H4ZM6 32.4C6 32.083 6.146 31.649 6.766 31.085C7.399 30.509 8.373 29.951 9.606 29.465C12.077 28.49 15.077 28 17 28C18.923 28 21.924 28.49 24.393 29.465C25.627 29.951 26.601 30.509 27.233 31.085C27.854 31.649 28 32.083 28 32.4V36H6V32.4ZM29.353 30.47C30.866 30.157 32.383 30 33.5 30C35.147 30 37.403 30.34 39.22 31.008C40.129 31.342 40.864 31.736 41.355 32.16C41.84 32.579 42 32.947 42 33.267V36H30V32.4C30 31.7 29.765 31.055 29.353 30.47ZM39 20.5C39 23.539 36.539 26 33.5 26C32.7777 26.0001 32.0624 25.858 31.3951 25.5816C30.7277 25.3053 30.1214 24.9001 29.6106 24.3894C29.0999 23.8786 28.6947 23.2723 28.4184 22.6049C28.142 21.9376 27.9999 21.2223 28 20.5C28 17.461 30.461 15 33.5 15C36.539 15 39 17.461 39 20.5ZM33.5 24C35.434 24 37 22.434 37 20.5C37 18.566 35.434 17 33.5 17C33.0403 16.9997 32.5851 17.0901 32.1603 17.2659C31.7355 17.4417 31.3496 17.6995 31.0245 18.0245C30.6995 18.3496 30.4417 18.7355 30.2659 19.1603C30.0901 19.5851 29.9997 20.0403 30 20.5C30 22.434 31.566 24 33.5 24Z" fill="black"/>
</svg>
